<svg xmlns="http://www.w3.org/2000/svg" xmlns:xlink="http://www.w3.org/1999/xlink" width="500" zoomAndPan="magnify" viewBox="0 0 375 374.999991" height="500" preserveAspectRatio="xMidYMid meet" version="1.0"><defs><clipPath id="e159420045"><path d="M 139.109375 198 L 283.898438 198 L 283.898438 231.96875 L 139.109375 231.96875 Z M 139.109375 198 " clip-rule="nonzero"/></clipPath><clipPath id="46adf2cfdc"><path d="M 139.109375 87.183594 L 283.898438 87.183594 L 283.898438 218 L 139.109375 218 Z M 139.109375 87.183594 " clip-rule="nonzero"/></clipPath><clipPath id="f69d890f61"><path d="M 91.101562 87.183594 L 156.914062 87.183594 L 156.914062 120.597656 L 91.101562 120.597656 Z M 91.101562 87.183594 " clip-rule="nonzero"/></clipPath><clipPath id="2d8273954e"><path d="M 107.808594 87.183594 L 140.207031 87.183594 C 144.636719 87.183594 148.886719 88.941406 152.019531 92.074219 C 155.15625 95.210938 156.914062 99.457031 156.914062 103.890625 C 156.914062 108.320312 155.15625 112.570312 152.019531 115.703125 C 148.886719 118.835938 144.636719 120.597656 140.207031 120.597656 L 107.808594 120.597656 C 103.378906 120.597656 99.128906 118.835938 95.996094 115.703125 C 92.863281 112.570312 91.101562 108.320312 91.101562 103.890625 C 91.101562 99.457031 92.863281 95.210938 95.996094 92.074219 C 99.128906 88.941406 103.378906 87.183594 107.808594 87.183594 " clip-rule="nonzero"/></clipPath><clipPath id="2b0a90953a"><path d="M 91.101562 140.320312 L 237.722656 140.320312 L 237.722656 175 L 91.101562 175 Z M 91.101562 140.320312 " clip-rule="nonzero"/></clipPath><clipPath id="45b768c371"><path d="M 91.101562 155 L 237.722656 155 L 237.722656 287.28125 L 91.101562 287.28125 Z M 91.101562 155 " clip-rule="nonzero"/></clipPath><clipPath id="e543595900"><path d="M 218.085938 253.386719 L 283.898438 253.386719 L 283.898438 287.816406 L 218.085938 287.816406 Z M 218.085938 253.386719 " clip-rule="nonzero"/></clipPath><clipPath id="29d77d7109"><path d="M 235.300781 253.386719 L 266.683594 253.386719 C 271.25 253.386719 275.628906 255.203125 278.855469 258.429688 C 282.085938 261.660156 283.898438 266.039062 283.898438 270.601562 C 283.898438 275.167969 282.085938 279.546875 278.855469 282.777344 C 275.628906 286.003906 271.25 287.816406 266.683594 287.816406 L 235.300781 287.816406 C 230.734375 287.816406 226.355469 286.003906 223.128906 282.777344 C 219.898438 279.546875 218.085938 275.167969 218.085938 270.601562 C 218.085938 266.039062 219.898438 261.660156 223.128906 258.429688 C 226.355469 255.203125 230.734375 253.386719 235.300781 253.386719 " clip-rule="nonzero"/></clipPath></defs><path fill="#ffa300" d="M 140.957031 200.417969 L 140.957031 230.113281 L 281.910156 230.113281 L 281.910156 200.417969 L 140.957031 200.417969 " fill-opacity="1" fill-rule="nonzero"/><g clip-path="url(#e159420045)"><path fill="#ffa300" d="M 142.8125 228.261719 L 142.8125 202.273438 L 280.054688 202.273438 L 280.054688 228.261719 Z M 139.101562 198.554688 L 139.101562 231.96875 L 283.765625 231.96875 L 283.765625 198.554688 L 139.101562 198.554688 " fill-opacity="1" fill-rule="nonzero"/></g><path fill="#ffa300" d="M 140.957031 89.039062 L 140.957031 118.734375 L 211.371094 118.734375 C 233.890625 118.734375 252.210938 137.058594 252.210938 159.578125 L 252.210938 215.261719 L 281.910156 215.261719 L 281.910156 159.578125 C 281.910156 120.679688 250.265625 89.039062 211.371094 89.039062 L 140.957031 89.039062 " fill-opacity="1" fill-rule="nonzero"/><g clip-path="url(#46adf2cfdc)"><path fill="#ffa300" d="M 142.8125 116.878906 L 142.8125 90.898438 L 211.371094 90.898438 C 249.242188 90.898438 280.054688 121.707031 280.054688 159.578125 L 280.054688 213.40625 L 254.066406 213.40625 L 254.066406 159.578125 C 254.066406 136.035156 234.914062 116.878906 211.371094 116.878906 Z M 139.101562 87.183594 L 139.101562 120.597656 L 211.371094 120.597656 C 232.867188 120.597656 250.355469 138.078125 250.355469 159.578125 L 250.355469 217.117188 L 283.765625 217.117188 L 283.765625 159.578125 C 283.765625 119.65625 251.289062 87.183594 211.371094 87.183594 L 139.101562 87.183594 " fill-opacity="1" fill-rule="nonzero"/></g><g clip-path="url(#f69d890f61)"><g clip-path="url(#2d8273954e)"><path fill="#ffa300" d="M 91.101562 87.183594 L 156.914062 87.183594 L 156.914062 120.597656 L 91.101562 120.597656 Z M 91.101562 87.183594 " fill-opacity="1" fill-rule="nonzero"/></g></g><path fill="#0095fd" d="M 236.1875 172.347656 L 236.1875 142.203125 L 93.121094 142.203125 L 93.121094 172.347656 L 236.1875 172.347656 " fill-opacity="1" fill-rule="nonzero"/><g clip-path="url(#2b0a90953a)"><path fill="#0095fd" d="M 234.304688 144.085938 L 234.304688 170.464844 L 95.003906 170.464844 L 95.003906 144.085938 Z M 238.070312 174.238281 L 238.070312 140.320312 L 91.238281 140.320312 L 91.238281 174.238281 L 238.070312 174.238281 " fill-opacity="1" fill-rule="nonzero"/></g><path fill="#0095fd" d="M 236.1875 285.398438 L 236.1875 255.253906 L 164.71875 255.253906 C 141.859375 255.253906 123.265625 236.65625 123.265625 213.800781 L 123.265625 157.28125 L 93.121094 157.28125 L 93.121094 213.800781 C 93.121094 253.28125 125.238281 285.398438 164.71875 285.398438 L 236.1875 285.398438 " fill-opacity="1" fill-rule="nonzero"/><g clip-path="url(#45b768c371)"><path fill="#0095fd" d="M 234.304688 257.136719 L 234.304688 283.511719 L 164.71875 283.511719 C 126.277344 283.511719 95.003906 252.242188 95.003906 213.800781 L 95.003906 159.164062 L 121.382812 159.164062 L 121.382812 213.800781 C 121.382812 237.695312 140.820312 257.136719 164.71875 257.136719 Z M 238.070312 287.28125 L 238.070312 253.367188 L 164.71875 253.367188 C 142.898438 253.367188 125.148438 235.621094 125.148438 213.800781 L 125.148438 155.398438 L 91.238281 155.398438 L 91.238281 213.800781 C 91.238281 254.320312 124.199219 287.28125 164.71875 287.28125 L 238.070312 287.28125 " fill-opacity="1" fill-rule="nonzero"/></g><g clip-path="url(#e543595900)"><g clip-path="url(#29d77d7109)"><path fill="#0095fd" d="M 218.085938 253.386719 L 283.898438 253.386719 L 283.898438 287.816406 L 218.085938 287.816406 Z M 218.085938 253.386719 " fill-opacity="1" fill-rule="nonzero"/></g></g></svg>